<svg height='20px' width='20px'  fill="#0F3047" xmlns="http://www.w3.org/2000/svg" xmlns:xlink="http://www.w3.org/1999/xlink" version="1.0" x="0px" y="0px" viewBox="0 0 100 100" enable-background="new 0 0 100 100" xml:space="preserve"><path d="M50,9.999c-22.09,0-40,17.907-40,40s17.91,40.003,40,40.003c5.417,0,10.586-1.094,15.3-3.047  c0.816-0.338,1.549-0.83,2.164-1.445c2.604-2.604,2.604-6.826,0-9.434l-4.693-4.693c-1.208-1.209-1.953-2.875-1.953-4.715  c0-3.682,2.988-6.666,6.666-6.666l15.85-0.004c3.682,0,6.667-2.984,6.667-6.666v-3.333C90,27.905,72.093,9.999,50,9.999z   M83.333,53.332l-15.85,0.003c-7.354,0-13.333,5.979-13.333,13.333c0,3.563,1.387,6.908,3.906,9.428l4.694,4.693  c-4.069,1.693-8.359,2.547-12.751,2.547c-18.379,0-33.333-14.955-33.333-33.337S31.621,16.665,50,16.665  s33.333,14.951,33.333,33.333V53.332z"></path><circle cx="50" cy="29.999" r="6.667"></circle><path d="M29.346,54.224c3.187-1.843,7.266-0.749,9.104,2.441c1.843,3.187,0.749,7.266-2.435,9.108  c-3.19,1.839-7.272,0.745-9.111-2.441C25.065,60.142,26.159,56.066,29.346,54.224z"></path><circle cx="67.319" cy="39.999" r="6.669"></circle><path d="M29.346,45.773c-3.19-1.843-4.28-5.921-2.438-9.108c1.836-3.19,5.918-4.284,9.105-2.444c3.189,1.842,4.28,5.921,2.438,9.108  C36.611,46.519,32.532,47.612,29.346,45.773z"></path></svg>