<svg height='22px' width='22px'  fill="#0F3047" xmlns="http://www.w3.org/2000/svg" xmlns:xlink="http://www.w3.org/1999/xlink" version="1.1" x="0px" y="0px" viewBox="0 0 100 100" style="enable-background:new 0 0 100 100;" xml:space="preserve"><g><path d="M28.33,38.38C33.89,40.07,41.23,41,49,41s15.11-0.93,20.67-2.62C76.52,36.3,80,33.31,80,29.5s-3.48-6.8-10.33-8.88   C64.11,18.93,56.77,18,49,18s-15.11,0.93-20.67,2.62C21.48,22.7,18,25.69,18,29.5S21.48,36.3,28.33,38.38z M49,24   c15.97,0,24.19,3.86,24.98,5.5C73.19,31.14,64.97,35,49,35s-24.19-3.86-24.98-5.5C24.81,27.86,33.03,24,49,24z"></path><path d="M28.33,58.38C33.89,60.07,41.23,61,49,61s15.11-0.93,20.67-2.62C76.52,56.3,80,53.31,80,49.5V40c0-1.66-1.34-3-3-3   s-3,1.34-3,3v9.43C73.41,51.03,65.19,55,49,55c-16.24,0-24.47-3.99-25-5.5V40c0-1.66-1.34-3-3-3s-3,1.34-3,3v9.5   C18,53.31,21.48,56.3,28.33,58.38z"></path><path d="M28.33,78.38C33.89,80.07,41.23,81,49,81s15.11-0.93,20.67-2.62C76.52,76.3,80,73.31,80,69.5V61c0-1.66-1.34-3-3-3   s-3,1.34-3,3l0.01,8.42C73.47,71.01,65.24,75,49,75s-24.47-3.99-25-5.5V61c0-1.66-1.34-3-3-3s-3,1.34-3,3v8.5   C18,73.31,21.48,76.3,28.33,78.38z"></path><path d="M64.93,46.02c0.01,1.66,1.37,2.99,3.02,2.98c1.66-0.01,2.99-1.37,2.98-3.02S69.56,42.99,67.9,43   C66.25,43.01,64.91,44.37,64.93,46.02z"></path><path d="M65.07,66.02c0.01,1.66,1.37,2.99,3.02,2.98s2.99-1.37,2.98-3.02c-0.01-1.66-1.37-2.99-3.02-2.98   C66.39,63.01,65.06,64.36,65.07,66.02z"></path></g></svg>