<svg height='20px' width='20px'  fill="#0F3047" xmlns="http://www.w3.org/2000/svg" xmlns:xlink="http://www.w3.org/1999/xlink" version="1.0" x="0px" y="0px" viewBox="0 0 100 100" enable-background="new 0 0 100 100" xml:space="preserve"><path d="M16.667,50v-6.667h6.666v-6.667h-6.666c-3.666,0-6.667,2.998-6.667,6.667V50H16.667z"></path><path d="M83.333,10h-40c-3.665,0-6.666,2.998-6.666,6.667v20H30v6.667h6.667v13.331c0,3.664,3.001,6.666,6.666,6.666H56.67V70h6.667  v-6.67h19.996c3.666,0,6.667-3.002,6.667-6.666V16.667C90,12.998,86.999,10,83.333,10z M83.333,56.664h-40V16.667h40V56.664z"></path><path d="M50,43.333h6.67V50h6.667v-6.667c0-3.669-3.002-6.667-6.667-6.667H50V43.333z"></path><rect x="30" y="83.333" width="13.333" height="6.667"></rect><path d="M56.67,76.667v6.666H50V90h6.67c3.665,0,6.667-3.001,6.667-6.667v-6.666H56.67z"></path><path d="M23.333,83.333h-6.666v-6.666H10v6.666C10,86.999,13.001,90,16.667,90h6.666V83.333z"></path><rect x="10" y="56.666" width="6.667" height="13.334"></rect></svg>