<svg height='20px' width='20px'  fill="#0F3047" xmlns="http://www.w3.org/2000/svg" xmlns:xlink="http://www.w3.org/1999/xlink" version="1.0" x="0px" y="0px" viewBox="0 0 100 100" enable-background="new 0 0 100 100" xml:space="preserve"><path d="M50,36.667c-3.538,0-6.907,0.703-10,1.957V26.667c0-5.521,4.479-10,10-10c5.524,0,10,4.479,10,10V30h6.667v-3.333  C66.667,17.461,59.206,10,50,10s-16.667,7.461-16.667,16.667v15.866c-6.09,4.889-10,12.383-10,20.801C23.333,78.06,35.273,90,50,90  s26.667-11.94,26.667-26.666C76.667,48.607,64.727,36.667,50,36.667z M50,83.333c-11.028,0-20-8.971-20-19.999  c0-11.029,8.972-20,20-20s20,8.971,20,20C70,74.362,61.028,83.333,50,83.333z"></path><path d="M56.667,60c0-3.678-2.985-6.666-6.667-6.666S43.333,56.322,43.333,60c0,2.461,1.348,4.59,3.334,5.742v7.591h6.666v-7.591  C55.319,64.59,56.667,62.461,56.667,60z"></path></svg>